<svg width="72" height="57" viewBox="0 0 72 57" fill="none" xmlns="http://www.w3.org/2000/svg">
<path d="M0 23.9355C0 15.0424 0 10.5959 1.88895 7.27499C3.16481 5.03191 5.01799 3.17362 7.25477 1.8942C10.5664 0 15.0007 0 23.8691 0H48.1307C56.9991 0 61.4332 0 64.7449 1.8942C66.9817 3.17362 68.8347 5.03191 70.1104 7.27499C72 10.5959 72 15.0424 72 23.9355V33.0645C72 41.9576 72 46.4042 70.1104 49.725C68.8347 51.9681 66.9817 53.8264 64.7449 55.1058C61.4332 57 56.999 57 48.1306 57H23.8691C15.0007 57 10.5664 57 7.25477 55.1058C5.01799 53.8264 3.16481 51.9681 1.88895 49.725C0 46.4042 0 41.9576 0 33.0645V23.9355Z" fill="#F4F5FB"/>
<path d="M18.9588 12.6641C22.4457 12.6641 25.2705 15.4974 25.2705 18.9955V37.9811C25.2705 41.4791 22.4457 44.3125 18.9588 44.3125C15.4712 44.3125 12.6464 41.4791 12.6464 37.9811V18.9955C12.6464 15.4974 15.4712 12.6641 18.9588 12.6641Z" fill="#0D2862"/>
<path d="M54.479 44.1397C57.8718 43.3366 59.973 39.9274 59.172 36.5252C58.3711 33.123 54.9714 31.016 51.5786 31.8192C48.1858 32.6223 46.0847 36.0315 46.8856 39.4337C47.6866 42.8359 51.0862 44.9429 54.479 44.1397Z" fill="#0D2862"/>
<path d="M58.5558 15.8985C60.2445 18.9576 59.1405 22.8081 56.0886 24.5023L39.5242 33.697C36.4722 35.3911 32.6321 34.2851 30.9434 31.2259C29.2544 28.1661 30.3584 24.3156 33.4103 22.6215L49.9747 13.4267C53.0266 11.7326 56.8667 12.8387 58.5558 15.8985Z" fill="#0D2862"/>
</svg>
